# xmcd
#
# Track frame offsets:
#	150
#	21611
#	38457
#	62145
#	82545
#	102517
#	121561
#	137367
#	165645
#	190321
#	209021
#	234347
#	254705
#	271699
#	289327
#
# Disc length: 4200
#
# Revision: 2
# Processed by: cddbd v1.5.1PL0 Copyright (c) Steve Scherf et al.
# Submitted via: audiograbber 1.83.01
# Normalized: r1:DSETVAR1
#
DISCID=cd10660f
DTITLE=Various Artist - 青春歌年鑑 90年代 総集編 Disc2
DYEAR=2004
DGENRE=JPop
TTITLE0=H Jungle With t - GOING GOING HOME
TTITLE1=ウルフルズ - ガッツだぜ!!
TTITLE2=globe - DEPARTURES
TTITLE3=華原朋美 - I'm proud
TTITLE4=dos - Baby baby baby
TTITLE5=相川七瀬 - BREAK OUT
TTITLE6=井上陽水奥田民生 - ありがとう
TTITLE7=安室奈美恵 - CAN YOU CELEBRATE?
TTITLE8=MAX - Give me a Shake
TTITLE9=Le Couple - ひだまりの詩
TTITLE10=SPEED - White Love
TTITLE11=DA PUMP - Rhapsody in Blue
TTITLE12=L'Arc-en-Ciel - HONEY
TTITLE13=浜崎あゆみ - Boys and Girls
TTITLE14=小柳ゆき - あなたのキスを教えましょう-You were mine-
EXTD=YEAR: 2004
EXTT0=
EXTT1=
EXTT2=
EXTT3=
EXTT4=
EXTT5=
EXTT6=
EXTT7=
EXTT8=
EXTT9=
EXTT10=
EXTT11=
EXTT12=
EXTT13=
EXTT14=
PLAYORDER=
